<mxfile host="app.diagrams.net" modified="2023-12-07T11:31:55.176Z" agent="Mozilla/5.0 (Windows NT 10.0; Win64; x64) AppleWebKit/537.36 (KHTML, like Gecko) Chrome/117.0.0.0 Safari/537.36" version="22.1.7" etag="zrZ_48h9VSACSM32fwjm" type="github">
  <diagram name="Page-1" id="VXn1QLHg06nI7pCUEOKj">
    <mxGraphModel>
      <root>
        <mxCell id="0" />
        <mxCell id="1" parent="0" />
      </root>
    </mxGraphModel>
  </diagram>
</mxfile>
